<?xml version="1.0" encoding="utf-8"?>
<!-- Generator: Adobe Illustrator 25.2.1, SVG Export Plug-In . SVG Version: 6.00 Build 0)  -->
<svg version="1.1" id="Calque_1" xmlns="http://www.w3.org/2000/svg" xmlns:xlink="http://www.w3.org/1999/xlink" x="0px" y="0px"
	 viewBox="0 0 53 53" style="enable-background:new 0 0 53 53;" xml:space="preserve">
<style type="text/css">
	.st0{fill:#BE1622;}
</style>
<g>
	<path class="st0" d="M26.5,53C11.9,53,0,41.1,0,26.5S11.9,0,26.5,0S53,11.9,53,26.5S41.1,53,26.5,53z M26.5,3C13.5,3,3,13.5,3,26.5
		S13.5,50,26.5,50S50,39.5,50,26.5S39.5,3,26.5,3z"/>
	<path class="st0" d="M37.8,20.5H15.2c-0.9,0-1.5-0.6-1.5-1.5s0.6-1.5,1.5-1.5h22.5c0.8,0,1.5,0.6,1.5,1.5S38.6,20.5,37.8,20.5z
		 M37.8,28H15.2c-0.9,0-1.5-0.7-1.5-1.5s0.6-1.5,1.5-1.5h22.5c0.8,0,1.5,0.6,1.5,1.5C39.2,27.3,38.6,28,37.8,28z"/>
	<g>
		<path class="st0" d="M37.8,35.5H15.2c-0.9,0-1.5-0.7-1.5-1.5s0.6-1.5,1.5-1.5h22.5c0.8,0,1.5,0.7,1.5,1.5S38.6,35.5,37.8,35.5z"/>
	</g>
</g>
</svg>
